<?xml version="1.0" encoding="UTF-8" standalone="no"?><!DOCTYPE svg PUBLIC "-//W3C//DTD SVG 1.1//EN" "http://www.w3.org/Graphics/SVG/1.1/DTD/svg11.dtd"><!-- Generated by graphviz version 2.40.1 (20161225.0304)
 --><!-- Title: finite_state_machine Pages: 1 --><svg xmlns="http://www.w3.org/2000/svg" xmlns:xlink="http://www.w3.org/1999/xlink" width="576pt" height="138pt" viewBox="0.00 0.00 576.00 138.35">
<g id="graph0" class="graph" transform="scale(.9399 .9399) rotate(0) translate(4 143.1869)">
<title>finite_state_machine</title>
<polygon fill="#ffffff" stroke="transparent" points="-4,4 -4,-143.1869 608.8023,-143.1869 608.8023,4 -4,4"/>
<!-- qi -->
<g id="node1" class="node">
<title>qi</title>
<ellipse fill="#000000" stroke="#000000" cx="1.8" cy="-53.6935" rx="1.8" ry="1.8"/>
</g>
<!-- S -->
<g id="node4" class="node">
<title>S</title>
<ellipse fill="none" stroke="#000000" cx="58.6" cy="-53.6935" rx="18" ry="18"/>
<text text-anchor="middle" x="58.6" y="-49.4935" font-family="Times,serif" font-size="14.00" fill="#000000">S</text>
</g>
<!-- qi&#45;&gt;S -->
<g id="edge1" class="edge">
<title>qi-&gt;S</title>
<path fill="none" stroke="#000000" d="M3.6898,-53.6935C8.0522,-53.6935 19.3107,-53.6935 30.5058,-53.6935"/>
<polygon fill="#000000" stroke="#000000" points="30.5696,-57.1936 40.5696,-53.6935 30.5696,-50.1936 30.5696,-57.1936"/>
</g>
<!-- q3 -->
<g id="node2" class="node">
<title>q3</title>
<ellipse fill="none" stroke="#000000" cx="270.644" cy="-24.6935" rx="20.8568" ry="20.8568"/>
<ellipse fill="none" stroke="#000000" cx="270.644" cy="-24.6935" rx="24.8884" ry="24.8884"/>
<text text-anchor="middle" x="270.644" y="-20.4935" font-family="Times,serif" font-size="14.00" fill="#000000">q3</text>
</g>
<!-- q3&#45;&gt;q3 -->
<g id="edge8" class="edge">
<title>q3-&gt;q3</title>
<path fill="none" stroke="#000000" d="M261.0868,-47.5338C260.0442,-58.1294 263.2299,-67.3869 270.644,-67.3869 275.5094,-67.3869 278.5539,-63.4 279.7774,-57.6645"/>
<polygon fill="#000000" stroke="#000000" points="283.2801,-57.6714 280.2011,-47.5338 276.2862,-57.3788 283.2801,-57.6714"/>
<text text-anchor="middle" x="270.644" y="-71.5869" font-family="Times,serif" font-size="14.00" fill="#000000">[0-9]</text>
</g>
<!-- q4 -->
<g id="node7" class="node">
<title>q4</title>
<ellipse fill="none" stroke="#000000" cx="373.7981" cy="-72.6935" rx="20.8887" ry="20.8887"/>
<text text-anchor="middle" x="373.7981" y="-68.4935" font-family="Times,serif" font-size="14.00" fill="#000000">q4</text>
</g>
<!-- q3&#45;&gt;q4 -->
<g id="edge9" class="edge">
<title>q3-&gt;q4</title>
<path fill="none" stroke="#000000" d="M293.2816,-35.2273C308.7495,-42.4249 329.3518,-52.0116 345.8438,-59.6857"/>
<polygon fill="#000000" stroke="#000000" points="344.4661,-62.9049 355.0092,-63.9506 347.4193,-56.5584 344.4661,-62.9049"/>
<text text-anchor="middle" x="324.221" y="-58.8935" font-family="Times,serif" font-size="14.00" fill="#000000">E, e</text>
</g>
<!-- q6 -->
<g id="node3" class="node">
<title>q6</title>
<ellipse fill="none" stroke="#000000" cx="580.1089" cy="-72.6935" rx="20.8568" ry="20.8568"/>
<ellipse fill="none" stroke="#000000" cx="580.1089" cy="-72.6935" rx="24.8884" ry="24.8884"/>
<text text-anchor="middle" x="580.1089" y="-68.4935" font-family="Times,serif" font-size="14.00" fill="#000000">q6</text>
</g>
<!-- q6&#45;&gt;q6 -->
<g id="edge13" class="edge">
<title>q6-&gt;q6</title>
<path fill="none" stroke="#000000" d="M569.8165,-95.5338C568.6937,-106.1294 572.1245,-115.3869 580.1089,-115.3869 585.3486,-115.3869 588.6273,-111.4 589.9449,-105.6645"/>
<polygon fill="#000000" stroke="#000000" points="593.4476,-105.6812 590.4012,-95.5338 586.4547,-105.3662 593.4476,-105.6812"/>
<text text-anchor="middle" x="580.1089" y="-119.5869" font-family="Times,serif" font-size="14.00" fill="#000000">[0-9]</text>
</g>
<!-- q1 -->
<g id="node5" class="node">
<title>q1</title>
<ellipse fill="none" stroke="#000000" cx="161.2753" cy="-83.6935" rx="20.8887" ry="20.8887"/>
<text text-anchor="middle" x="161.2753" y="-79.4935" font-family="Times,serif" font-size="14.00" fill="#000000">q1</text>
</g>
<!-- S&#45;&gt;q1 -->
<g id="edge2" class="edge">
<title>S-&gt;q1</title>
<path fill="none" stroke="#000000" d="M76.0175,-58.7825C91.2016,-63.2191 113.5514,-69.7494 131.5588,-75.0108"/>
<polygon fill="#000000" stroke="#000000" points="130.7269,-78.414 141.3072,-77.8591 132.6901,-71.6949 130.7269,-78.414"/>
<text text-anchor="middle" x="108.5909" y="-76.8935" font-family="Times,serif" font-size="14.00" fill="#000000">[0-9]</text>
</g>
<!-- q2 -->
<g id="node6" class="node">
<title>q2</title>
<ellipse fill="none" stroke="#000000" cx="161.2753" cy="-24.6935" rx="20.8887" ry="20.8887"/>
<text text-anchor="middle" x="161.2753" y="-20.4935" font-family="Times,serif" font-size="14.00" fill="#000000">q2</text>
</g>
<!-- S&#45;&gt;q2 -->
<g id="edge3" class="edge">
<title>S-&gt;q2</title>
<path fill="none" stroke="#000000" d="M75.2778,-46.7341C81.3018,-44.3717 88.1959,-41.8401 94.6,-39.8935 106.254,-36.351 119.2756,-33.2066 130.6969,-30.7102"/>
<polygon fill="#000000" stroke="#000000" points="131.5905,-34.0988 140.6509,-28.607 130.1434,-27.25 131.5905,-34.0988"/>
<text text-anchor="middle" x="108.5909" y="-44.8935" font-family="Times,serif" font-size="14.00" fill="#000000">.</text>
</g>
<!-- q1&#45;&gt;q3 -->
<g id="edge4" class="edge">
<title>q1-&gt;q3</title>
<path fill="none" stroke="#000000" d="M179.8282,-73.6849C196.1688,-64.8698 220.3004,-51.8518 239.5817,-41.4503"/>
<polygon fill="#000000" stroke="#000000" points="241.4627,-44.4124 248.602,-36.5842 238.1392,-38.2517 241.4627,-44.4124"/>
<text text-anchor="middle" x="213.9596" y="-65.8935" font-family="Times,serif" font-size="14.00" fill="#000000">.</text>
</g>
<!-- q1&#45;&gt;q1 -->
<g id="edge5" class="edge">
<title>q1-&gt;q1</title>
<path fill="none" stroke="#000000" d="M151.9918,-102.4059C150.2589,-112.808 153.3534,-122.3869 161.2753,-122.3869 166.474,-122.3869 169.5937,-118.2616 170.6345,-112.4856"/>
<polygon fill="#000000" stroke="#000000" points="174.1339,-112.3793 170.5587,-102.4059 167.1341,-112.432 174.1339,-112.3793"/>
<text text-anchor="middle" x="161.2753" y="-126.5869" font-family="Times,serif" font-size="14.00" fill="#000000">[0-9]</text>
</g>
<!-- q1&#45;&gt;q4 -->
<g id="edge6" class="edge">
<title>q1-&gt;q4</title>
<path fill="none" stroke="#000000" d="M181.7868,-87.5022C208.1491,-91.8405 255.2954,-97.7166 295.3374,-92.6935 311.724,-90.6378 329.5949,-86.2567 344.1365,-82.1175"/>
<polygon fill="#000000" stroke="#000000" points="345.4695,-85.3733 354.0678,-79.183 343.4859,-78.6602 345.4695,-85.3733"/>
<text text-anchor="middle" x="270.644" y="-98.8935" font-family="Times,serif" font-size="14.00" fill="#000000">E, e</text>
</g>
<!-- q2&#45;&gt;q3 -->
<g id="edge7" class="edge">
<title>q2-&gt;q3</title>
<path fill="none" stroke="#000000" d="M182.1041,-24.6935C197.091,-24.6935 217.671,-24.6935 235.2182,-24.6935"/>
<polygon fill="#000000" stroke="#000000" points="235.6747,-28.1935 245.6747,-24.6935 235.6746,-21.1935 235.6747,-28.1935"/>
<text text-anchor="middle" x="213.9596" y="-28.8935" font-family="Times,serif" font-size="14.00" fill="#000000">[0-9]</text>
</g>
<!-- q4&#45;&gt;q6 -->
<g id="edge11" class="edge">
<title>q4-&gt;q6</title>
<path fill="none" stroke="#000000" d="M393.693,-78.8612C399.6755,-80.4362 406.2969,-81.9059 412.4915,-82.6935 467.5699,-89.6957 482.2607,-89.0666 537.4154,-82.6935 540.2513,-82.3658 543.1725,-81.9195 546.0931,-81.3964"/>
<polygon fill="#000000" stroke="#000000" points="546.8048,-84.8234 555.896,-79.3829 545.3963,-77.9666 546.8048,-84.8234"/>
<text text-anchor="middle" x="470.7402" y="-92.8935" font-family="Times,serif" font-size="14.00" fill="#000000">[0-9]</text>
</g>
<!-- q5 -->
<g id="node8" class="node">
<title>q5</title>
<ellipse fill="none" stroke="#000000" cx="470.7402" cy="-43.6935" rx="20.8887" ry="20.8887"/>
<text text-anchor="middle" x="470.7402" y="-39.4935" font-family="Times,serif" font-size="14.00" fill="#000000">q5</text>
</g>
<!-- q4&#45;&gt;q5 -->
<g id="edge10" class="edge">
<title>q4-&gt;q5</title>
<path fill="none" stroke="#000000" d="M393.8845,-66.6846C407.4026,-62.6407 425.4686,-57.2363 440.6883,-52.6834"/>
<polygon fill="#000000" stroke="#000000" points="442.102,-55.9138 450.6794,-49.6946 440.0958,-49.2074 442.102,-55.9138"/>
<text text-anchor="middle" x="422.2691" y="-65.8935" font-family="Times,serif" font-size="14.00" fill="#000000">-, +</text>
</g>
<!-- q5&#45;&gt;q6 -->
<g id="edge12" class="edge">
<title>q5-&gt;q6</title>
<path fill="none" stroke="#000000" d="M490.8001,-49.0125C506.3056,-53.1239 528.1204,-58.9083 546.3082,-63.7309"/>
<polygon fill="#000000" stroke="#000000" points="545.4132,-67.1145 555.9763,-66.2945 547.2074,-60.3483 545.4132,-67.1145"/>
<text text-anchor="middle" x="523.4245" y="-65.8935" font-family="Times,serif" font-size="14.00" fill="#000000">[0-9]</text>
</g>
</g>
</svg>